<?xml version="1.0" encoding="UTF-8" standalone="no"?>
<!-- Created with Inkscape (http://www.inkscape.org/) -->

<svg
   xmlns:dc="http://purl.org/dc/elements/1.1/"
   xmlns:cc="http://creativecommons.org/ns#"
   xmlns:rdf="http://www.w3.org/1999/02/22-rdf-syntax-ns#"
   xmlns:svg="http://www.w3.org/2000/svg"
   xmlns="http://www.w3.org/2000/svg"
   xmlns:sodipodi="http://sodipodi.sourceforge.net/DTD/sodipodi-0.dtd"
   xmlns:inkscape="http://www.inkscape.org/namespaces/inkscape"
   width="779.52753"
   height="779.52753"
   id="svg14434"
   version="1.1"
   inkscape:version="0.48.5 r10040"
   sodipodi:docname="New document 9">
  <defs
     id="defs14436" />
  <sodipodi:namedview
     id="base"
     pagecolor="#ffffff"
     bordercolor="#666666"
     borderopacity="1.0"
     inkscape:pageopacity="0.0"
     inkscape:pageshadow="2"
     inkscape:zoom="0.7"
     inkscape:cx="1960.1623"
     inkscape:cy="344.06405"
     inkscape:document-units="mm"
     inkscape:current-layer="layer1"
     showgrid="false"
     units="mm"
     inkscape:snap-bbox="true"
     inkscape:bbox-nodes="true"
     showguides="true"
     inkscape:guide-bbox="true"
     inkscape:window-width="1366"
     inkscape:window-height="702"
     inkscape:window-x="0"
     inkscape:window-y="27"
     inkscape:window-maximized="1">
    <sodipodi:guide
       orientation="0,1"
       position="1583.2954,277.29882"
       id="guide14483" />
    <sodipodi:guide
       orientation="0,1"
       position="1583.2954,626.21844"
       id="guide14502" />
    <sodipodi:guide
       orientation="1,0"
       position="2293.8474,376.42762"
       id="guide14504" />
    <sodipodi:guide
       orientation="1,0"
       position="1483.2954,377.29882"
       id="guide14506" />
    <sodipodi:guide
       orientation="1,0"
       position="2193.8475,382.39263"
       id="guide14510" />
  </sodipodi:namedview>
  <metadata
     id="metadata14439">
    <rdf:RDF>
      <cc:Work
         rdf:about="">
        <dc:format>image/svg+xml</dc:format>
        <dc:type
           rdf:resource="http://purl.org/dc/dcmitype/StillImage" />
        <dc:title></dc:title>
      </cc:Work>
    </rdf:RDF>
  </metadata>
  <g
     inkscape:label="Layer 1"
     inkscape:groupmode="layer"
     id="layer1"
     transform="translate(0,-272.83465)">
    <rect
       style="color:#000000;fill:#ffffff;stroke:#3c6eb4;stroke-width:0.03543307;stroke-opacity:1;marker:none;visibility:visible;display:inline;overflow:visible;enable-background:accumulate;stroke-miterlimit:4;stroke-dasharray:none"
       id="rect14475"
       width="810.552"
       height="348.91962"
       x="-2293.8474"
       y="-775.06335"
       transform="scale(-1,-1)" />
    <g
       style="fill:#3c6eb4;fill-opacity:1"
       id="g8323"
       transform="translate(1483.2954,425.93552)">
      <path
         style="font-size:11.72808552px;font-style:normal;font-variant:normal;font-weight:bold;font-stretch:expanded;text-align:start;line-height:89.99999762%;writing-mode:lr-tb;text-anchor:start;fill:#3c6eb4;fill-opacity:1;stroke:none;font-family:Comfortaa;-inkscape-font-specification:Comfortaa Bold Expanded"
         id="path4724"
         d="m 703.99519,238.85717 0,4.61565 c 0,0.30924 -0.18707,0.49631 -0.5612,0.56121 l -0.0401,0 c -0.31687,0 -0.51158,-0.19661 -0.58411,-0.58985 l 0,-7.3186 c 0.0458,-0.42375 0.22524,-0.63564 0.5383,-0.63565 l 0.0859,0 c 0.31687,1e-5 0.52875,0.22525 0.63565,0.67574 l 2.62851,5.87549 c 0.0344,-0.13362 0.61083,-1.47555 1.72944,-4.0258 l 1.0766,-2.31926 c 0.12979,-0.13743 0.27105,-0.20616 0.42377,-0.20617 l 0.0859,0 c 0.31304,1e-5 0.49248,0.2119 0.5383,0.63565 l 0,7.3186 c -0.0725,0.39323 -0.26725,0.58985 -0.58412,0.58985 l -0.0401,0 c -0.37415,-0.0649 -0.56122,-0.25197 -0.56121,-0.56121 l 0,-4.62136 c -1.4202,3.21452 -2.16275,4.87334 -2.22765,4.9764 -0.15653,0.13744 -0.30924,0.20617 -0.45813,0.20617 -0.33596,0 -0.61275,-0.33978 -0.83036,-1.01933 l -1.85542,-4.15753 m -7.79387,-3.39015 5.3601,0 c 0.36268,0.0687 0.54402,0.2558 0.54402,0.56121 l 0,0.0859 c 0,0.31306 -0.21189,0.49249 -0.63565,0.5383 l -1.99286,0 0,6.82038 c 0,0.30924 -0.19089,0.49631 -0.57266,0.56121 l -0.0286,0 c -0.31688,0 -0.51158,-0.19661 -0.58411,-0.58984 l 0,-6.79175 -2.03867,0 c -0.39323,-0.0763 -0.58985,-0.28251 -0.58985,-0.61847 0.084,-0.37795 0.26343,-0.56693 0.53831,-0.56694"
         inkscape:connector-curvature="0" />
      <path
         style="fill:#3c6eb4;fill-opacity:1"
         id="path17"
         d="m 264.95202,206.55153 c 0,0 0,0 -67.46881,0 1.09192,14.62579 12.88236,25.545 28.60199,25.545 11.1351,0 20.74362,-4.5855 28.38515,-12.0073 1.52946,-1.53425 3.27576,-1.96987 5.23988,-1.96987 2.62042,0 5.24179,1.31261 6.98714,3.49645 1.09288,1.5285 1.74823,3.27577 1.74823,5.02015 0,2.40261 -1.09288,5.02111 -3.05892,6.9881 -9.17098,9.82345 -24.67281,16.37498 -39.95874,16.37498 -27.72884,0 -49.99904,-22.2702 -49.99904,-50.00096 0,-27.72788 21.61581,-49.99904 49.34466,-49.99904 27.51199,0 48.03588,21.39705 48.03588,49.5615 0.002,4.15084 -3.70946,6.99099 -7.85742,6.99099 z m -40.1775,-38.64806 c -14.62867,0 -24.67185,9.6066 -26.85474,23.57609 32.96872,0 53.71138,0 53.71138,0 -1.96507,-13.31414 -12.44578,-23.57609 -26.85664,-23.57609 z"
         inkscape:connector-curvature="0" />
      <path
         style="fill:#3c6eb4;fill-opacity:1"
         id="path19"
         d="m 457.74132,250 c -27.72885,0 -49.99809,-22.2702 -49.99809,-50.00096 0,-27.72788 22.26924,-49.99904 49.99809,-49.99904 27.73172,0 50.00096,22.27116 50.00096,49.99904 C 507.74323,227.7298 485.474,250 457.74132,250 z m 0,-81.00652 c -17.46594,0 -28.82173,13.9762 -28.82173,31.0046 0,17.0284 11.35579,31.00365 28.82173,31.00365 17.46785,0 28.8246,-13.97525 28.8246,-31.00365 0,-17.0284 -11.35675,-31.0046 -28.8246,-31.0046 z"
         inkscape:connector-curvature="0" />
      <path
         style="fill:#3c6eb4;fill-opacity:1"
         id="path21"
         d="m 579.93667,149.99904 c -14.64978,0 -24.33986,4.33314 -32.89484,15.20917 l -0.78967,-5.05853 0,0 c -0.66398,-5.28113 -5.16888,-9.35904 -10.62272,-9.35904 -5.91729,0 -10.7158,4.79178 -10.7158,10.71195 0,0.008 0,0.0163 0,0.024 l 0,0 0,0.01 0,0 0,76.8912 c 0,5.89522 4.80234,10.69948 10.69853,10.69948 5.89522,0 10.69948,-4.80522 10.69948,-10.69948 l 0,-41.2656 c 0,-18.77662 16.37497,-28.16734 33.62502,-28.16734 5.24084,0 9.38688,-4.36672 9.38688,-9.60756 0,-5.24083 -4.14604,-9.38783 -9.38688,-9.38783 z"
         inkscape:connector-curvature="0" />
      <path
         style="fill:#3c6eb4;fill-opacity:1;color:#000000;fill-rule:nonzero;stroke-width:1;stroke-linecap:butt;stroke-linejoin:miter;stroke-miterlimit:4;stroke-opacity:1;stroke-dasharray:none;stroke-dashoffset:0;marker:none;visibility:visible;display:inline;overflow:visible;enable-background:accumulate"
         id="path23"
         d="m 692.81904,199.99808 c 0.21972,-26.85473 -18.99732,-49.99904 -50.00192,-49.99904 -27.72981,0 -50.21973,22.27116 -50.21973,49.99904 0,27.73076 21.83458,50.00096 48.25561,50.00096 13.18557,0 25.05278,-6.78756 30.34734,-13.87833 l 2.60699,6.61677 0,0 c 1.39896,3.71714 4.98465,6.36346 9.19017,6.36346 5.42027,0 9.81482,-4.39071 9.82154,-9.80714 l 0,0 0,-25.64575 0,0 0,-13.64997 0,0 z m -50.00192,31.00461 c -17.46882,0 -28.82173,-13.97525 -28.82173,-31.00365 0,-17.0284 11.35291,-31.00461 28.82173,-31.00461 17.46689,0 28.82172,13.97621 28.82172,31.00461 0,17.0284 -11.35483,31.00365 -28.82172,31.00365 z"
         inkscape:connector-curvature="0" />
      <path
         style="fill:#3c6eb4;fill-opacity:1"
         id="path25"
         d="m 390.57091,110.47592 c 0,-5.89331 -4.80234,-10.479758 -10.69661,-10.479758 -5.89522,0 -10.7014,4.586448 -10.7014,10.479758 l 0,56.33467 c -5.45672,-10.04317 -17.24717,-16.81155 -31.22241,-16.81155 -28.38419,0 -47.37958,21.39705 -47.37958,49.99904 0,28.60488 19.65074,50.00096 47.37958,50.00096 12.36903,0 23.09346,-5.10459 29.51641,-13.97812 l 2.37574,6.02475 c 1.47189,4.1374 5.41739,7.09653 10.05373,7.09653 5.86836,0 10.6755,-4.77739 10.6755,-10.66974 0,-0.0163 0,-0.0297 0,-0.0461 l 0,0 0,-127.95049 -9.6e-4,0 z m -50.00096,120.52677 c -17.46594,0 -28.602,-13.97525 -28.602,-31.00365 0,-17.0284 11.1351,-31.00461 28.602,-31.00461 17.46881,0 28.60295,13.31895 28.60295,31.00461 0,17.68183 -11.13414,31.00365 -28.60295,31.00365 z"
         inkscape:connector-curvature="0" />
      <path
         style="fill:#3c6eb4;fill-opacity:1"
         id="path27"
         d="m 167.85454,100.64287 c -1.95164,-0.28881 -3.9407,-0.43466 -5.91633,-0.43466 -22.11092,0 -40.10075,17.99079 -40.10075,40.10267 l 0,12.52639 -13.10209,0 c -4.8033,0 -8.73537,3.9311 -8.73537,8.73249 0,4.80618 3.93207,9.64978 8.73537,9.64978 l 13.10113,0 0,67.20878 c 0,5.89523 4.80426,10.69949 10.69756,10.69949 5.89714,0 10.70044,-4.80522 10.70044,-10.69949 l 0,-67.20878 14.48571,0 c 4.80234,0 8.73249,-4.8436 8.73249,-9.64978 0,-4.80139 -3.92919,-8.73249 -8.73249,-8.73249 l -14.47899,0 0,-12.52639 c 0,-10.30992 8.38707,-20.08635 18.69699,-20.08635 0.9288,0 1.86432,0.0691 2.78161,0.20437 5.84821,0.86548 11.28766,-1.78277 12.15506,-7.63193 0.86356,-5.84629 -3.1731,-11.2867 -9.02034,-12.1541 z"
         inkscape:connector-curvature="0" />
    </g>
    <rect
       style="color:#000000;fill:none;fill-opacity:1;fill-rule:nonzero;stroke:#3c6eb4;stroke-width:1;marker:none;visibility:visible;display:inline;overflow:visible;enable-background:accumulate;stroke-opacity:1"
       id="rect14508"
       width="610.55206"
       height="149.79082"
       x="1583.2954"
       y="526.14374" />
  </g>
</svg>
