<?xml version="1.0" encoding="UTF-8" standalone="no"?>
<!-- Created with Inkscape (http://www.inkscape.org/) -->

<svg
   xmlns:dc="http://purl.org/dc/elements/1.1/"
   xmlns:cc="http://creativecommons.org/ns#"
   xmlns:rdf="http://www.w3.org/1999/02/22-rdf-syntax-ns#"
   xmlns:svg="http://www.w3.org/2000/svg"
   xmlns="http://www.w3.org/2000/svg"
   xmlns:sodipodi="http://sodipodi.sourceforge.net/DTD/sodipodi-0.dtd"
   xmlns:inkscape="http://www.inkscape.org/namespaces/inkscape"
   width="761.81104"
   height="779.52753"
   id="svg3143"
   version="1.1"
   inkscape:version="0.48.5 r10040"
   sodipodi:docname="Nuovo documento 1">
  <sodipodi:namedview
     id="base"
     pagecolor="#ffffff"
     bordercolor="#666666"
     borderopacity="1.0"
     inkscape:pageopacity="0.0"
     inkscape:pageshadow="2"
     inkscape:zoom="0.43213616"
     inkscape:cx="630.41915"
     inkscape:cy="267.88022"
     inkscape:document-units="mm"
     inkscape:current-layer="layer1"
     showgrid="false"
     units="mm"
     inkscape:object-nodes="true"
     inkscape:snap-bbox="true"
     inkscape:window-width="1920"
     inkscape:window-height="1053"
     inkscape:window-x="0"
     inkscape:window-y="27"
     inkscape:window-maximized="1">
    <sodipodi:guide
       id="guide3192"
       orientation="0,761.81104"
       position="0,0" />
    <sodipodi:guide
       id="guide3194"
       orientation="-779.52753,0"
       position="761.81104,0" />
    <sodipodi:guide
       id="guide3196"
       orientation="0,-761.81104"
       position="761.81104,779.52753" />
    <sodipodi:guide
       id="guide3198"
       orientation="779.52753,0"
       position="0,779.52753" />
    <sodipodi:guide
       id="guide3207"
       position="0.0,0"
       orientation="779.5275,0" />
    <sodipodi:guide
       id="guide3209"
       position="380.9055,0"
       orientation="779.5275,0" />
    <sodipodi:guide
       id="guide3211"
       position="761.811,0"
       orientation="779.5275,0" />
    <sodipodi:guide
       id="guide3213"
       position="0,0.0"
       orientation="0,761.811" />
    <sodipodi:guide
       id="guide3215"
       position="0,389.7638"
       orientation="0,761.811" />
    <sodipodi:guide
       id="guide3217"
       position="0,779.5275"
       orientation="0,761.811" />
  </sodipodi:namedview>
  <defs
     id="defs3145" />
  <metadata
     id="metadata3148">
    <rdf:RDF>
      <cc:Work
         rdf:about="">
        <dc:format>image/svg+xml</dc:format>
        <dc:type
           rdf:resource="http://purl.org/dc/dcmitype/StillImage" />
        <dc:title></dc:title>
      </cc:Work>
    </rdf:RDF>
  </metadata>
  <g
     transform="translate(0,-272.83417)"
     id="layer1"
     inkscape:groupmode="layer"
     inkscape:label="Livello 1">
    <path
       inkscape:connector-curvature="0"
       d="m 405.73739,658.81396 0,27.95737 c 0,1.87312 -1.1331,3.00622 -3.39923,3.3993 l -0.2431,0 c -1.91934,0 -3.09866,-1.19086 -3.53804,-3.57273 l 0,-44.32947 c 0.27719,-2.56677 1.36429,-3.85015 3.26056,-3.85022 l 0.52029,0 c 1.91934,7e-5 3.20272,1.36436 3.85022,4.09302 l 15.9211,35.58845 c 0.20826,-0.80932 3.69987,-8.93753 10.4754,-24.38464 l 6.52112,-14.04806 c 0.7861,-0.83247 1.64178,-1.2487 2.56677,-1.24877 l 0.52029,0 c 1.89605,7e-5 2.983,1.28345 3.26048,3.85022 l 0,44.32947 c -0.43901,2.38187 -1.6187,3.57273 -3.53804,3.57273 l -0.2431,0 c -2.26627,-0.3933 -3.39937,-1.52618 -3.3993,-3.3993 l 0,-27.99206 c -8.60228,19.47076 -13.1,29.51832 -13.49316,30.14267 -0.94806,0.83246 -1.87304,1.24869 -2.77488,1.24869 -2.03494,0 -3.71148,-2.05808 -5.02962,-6.17418 l -11.23842,-25.18249 m -47.20826,-20.5345 32.46663,0 c 2.19683,0.4158 3.29524,1.54941 3.29524,3.39931 l 0,0.52029 c 0,1.89634 -1.28345,2.98307 -3.85022,3.26063 l -12.07095,0 0,41.31171 c 0,1.87312 -1.15625,3.00615 -3.46868,3.39923 l -0.17343,0 c -1.91941,0 -3.09867,-1.19079 -3.53805,-3.57266 l 0,-41.13828 -12.34837,0 c -2.38187,-0.46224 -3.5728,-1.71123 -3.5728,-3.74624 0.50868,-2.28927 1.59563,-3.43391 3.26063,-3.43399"
       id="path4724-8"
       style="font-size:11.72808552px;font-style:normal;font-variant:normal;font-weight:bold;font-stretch:expanded;text-align:start;line-height:89.99999762%;writing-mode:lr-tb;text-anchor:start;fill:#3c6eb4;fill-opacity:1;stroke:none;font-family:Comfortaa;-inkscape-font-specification:Comfortaa Bold Expanded" />
    <path
       style="fill:#294172;fill-opacity:1"
       d="M 0 0 L 0 452.0625 L 94.15625 452.0625 C 294.48882 451.9812 456.84375 289.58257 456.84375 89.25 C 456.84375 58.458164 453.03184 28.548519 445.8125 0 L 0 0 z "
       transform="translate(0,272.83417)"
       id="path35-2" />
    <path
       style="fill:#3c6eb4;fill-opacity:1"
       d="M 30.25 0 L 30.25 72.96875 L 0 72.96875 L 0 152.25 L 17.5 152.25 C 17.52322 152.25 17.54509 152.21875 17.5625 152.21875 C 24.571524 152.21875 30.28125 157.89721 30.28125 164.90625 C 30.28125 164.91225 30.25 164.923 30.25 164.9375 L 30.25 243.03125 C 30.20618 269.73182 18.525347 293.68758 0 310.125 L 0 402.40625 C 64.631386 378.23288 110.65625 315.93796 110.65625 242.875 L 110.65625 242.75 L 110.65625 152.25 L 200.5 152.25 L 200.53125 152.25 C 288.73173 152.25 361.2909 85.834719 369.96875 0 L 289.09375 0 C 280.97539 41.44 244.26436 72.9375 200.53125 72.9375 L 200.4375 72.9375 L 123.375 72.9375 L 123.34375 72.9375 C 116.32309 72.9375 110.65625 67.25902 110.65625 60.25 L 110.65625 0 L 30.25 0 z "
       transform="translate(0,272.83417)"
       id="path39-8" />
    <path
       style="fill:#ffffff"
       d="M 30.25 0 L 30.25 72.9375 L 0 72.9375 L 0 152.25 L 17.53125 152.25 L 17.5625 152.25 C 24.571523 152.25 30.25 157.90881 30.25 164.90625 L 30.25 243 C 30.20304 269.70686 18.52601 293.68935 0 310.125 L 0 402.40625 C 64.641805 378.24 110.65625 315.94092 110.65625 242.875 L 110.65625 242.75 L 110.65625 152.21875 L 182.40625 152.21875 C 204.39807 152.21875 222.1875 134.6611 222.1875 112.59375 C 222.17008 90.54381 204.40387 72.9375 182.40625 72.9375 L 123.40625 72.9375 L 123.375 72.9375 C 116.35435 72.9375 110.65625 67.25904 110.65625 60.25 L 110.65625 0 L 30.25 0 z "
       transform="translate(0,272.83417)"
       id="path41-6" />
  </g>
</svg>
